<svg version="1.1" id="Layer_1" xmlns="http://www.w3.org/2000/svg" xmlns:xlink="http://www.w3.org/1999/xlink" x="0px" y="0px"
	 width="100%" viewBox="0 0 514 514" enable-background="new 0 0 514 514" xml:space="preserve">
<path fill="#010101" opacity="1.000000" stroke="none" 
	d="
M287.000000,515.000000 
	C191.356476,515.000000 96.212944,515.000000 1.034706,515.000000 
	C1.034706,343.731476 1.034706,172.462921 1.034706,1.097190 
	C172.226837,1.097190 343.453766,1.097190 514.840332,1.097190 
	C514.840332,172.333221 514.840332,343.666595 514.840332,515.000000 
	C439.129639,515.000000 363.314819,515.000000 287.000000,515.000000 
M197.001221,262.001221 
	C197.001221,262.001221 196.992966,261.981598 196.523544,262.164795 
	C196.344070,262.439728 196.164581,262.714661 195.999390,262.998779 
	C195.999390,262.998779 195.983307,262.984894 195.386520,263.237518 
	C194.294373,264.150879 193.202225,265.064240 191.750122,265.636078 
	C191.583801,265.331787 191.338562,265.118042 190.991592,264.205811 
	C190.603363,262.134674 190.215134,260.063538 190.102661,257.317200 
	C193.302917,252.110352 196.661270,246.992340 199.653458,241.668549 
	C202.050812,237.403107 205.791931,232.916733 205.863831,228.478653 
	C206.335785,199.341019 206.012970,170.189606 205.825867,141.043488 
	C205.805527,137.873169 204.996017,134.707932 204.511856,131.249664 
	C152.308701,156.236343 114.443687,207.859833 122.224709,278.340851 
	C128.760880,337.545868 172.626602,375.728912 205.936081,386.736450 
	C205.936081,383.949097 205.929611,381.292114 205.937103,378.635223 
	C206.012695,351.819641 205.964233,325.002655 206.258926,298.189453 
	C206.330261,291.699158 205.771133,285.643524 202.389343,279.614990 
	C204.125717,279.405640 205.877869,279.281860 207.594467,278.965332 
	C209.732422,278.571136 212.253494,278.375061 210.817169,274.552734 
	C210.544174,274.360291 210.271164,274.167847 209.997925,274.004547 
	C209.997925,274.004547 210.025040,273.993774 209.497635,273.386993 
	C207.363876,273.195312 205.197250,273.175171 203.103683,272.773804 
	C199.486938,272.080444 197.929031,269.015076 199.564865,266.169525 
	C200.035126,266.444275 200.505386,266.719025 200.998703,267.003113 
	C200.998703,267.003113 200.987320,266.982147 200.476730,267.354492 
	C200.647308,268.243011 200.817886,269.131500 201.000610,269.999786 
	C201.000610,269.999786 200.979950,270.011505 201.339325,270.554077 
	C202.290970,270.374146 203.242630,270.194214 204.546707,269.825043 
	C204.766235,269.658661 204.921219,269.445404 205.488815,268.767090 
	C205.665848,268.180145 205.842880,267.593170 205.998291,266.998779 
	C205.998291,266.998779 206.006775,267.020172 206.613815,267.016693 
	C207.083878,266.680420 207.553940,266.344177 207.997726,265.999084 
	C207.997726,265.999084 208.008911,266.024628 208.571884,265.747772 
	C208.386765,264.493164 208.201645,263.238525 208.000000,262.000000 
	C208.000000,262.000000 208.015701,261.985199 207.707138,261.319672 
	C204.569183,258.156403 201.342636,257.587555 197.998413,261.002197 
	C197.998413,261.002197 197.994431,260.980408 197.525131,261.167053 
	C197.344009,261.442444 197.162888,261.717834 197.001221,262.001221 
M217.007614,262.007629 
	C217.007614,262.007629 217.037079,261.959015 216.549438,262.171143 
	C216.352463,262.459961 216.155472,262.748810 216.006836,263.006805 
	C216.006836,263.006805 216.036804,262.957916 215.579163,263.181183 
	C215.384384,263.455627 215.189606,263.730042 215.001419,264.000916 
	C215.001419,264.000916 215.003448,263.992676 214.506805,264.500671 
	C212.536911,267.540161 212.790390,270.445740 215.006042,273.627930 
	C215.006042,273.627930 215.011551,274.025177 215.272842,274.437714 
	C215.478943,274.699036 215.732620,274.900452 216.002869,274.998322 
	C216.002869,274.998322 215.954025,274.976471 216.333405,275.456818 
	C216.903076,275.648499 217.472733,275.840179 218.005966,275.992371 
	C218.005966,275.992371 217.956070,275.972443 218.280350,276.592804 
	C219.309006,276.973846 220.337677,277.354889 221.675095,278.531281 
	C222.018082,315.485321 222.400665,352.439148 222.633453,389.393890 
	C222.653366,392.555054 223.654953,394.005676 226.665787,394.946350 
	C243.463043,400.194305 260.660156,401.356506 277.976166,399.353821 
	C287.447845,398.258331 296.748016,395.679810 306.091675,393.776947 
	C306.091675,362.480133 306.029510,332.352905 306.131531,302.226257 
	C306.160217,293.752899 306.945404,285.222717 300.770874,278.170624 
	C300.607330,277.983856 300.753723,277.525696 301.600006,277.077759 
	C302.734100,275.777557 304.658997,274.581573 304.846741,273.156677 
	C305.317657,269.582703 305.005371,265.905212 305.001862,262.269226 
	C304.997986,258.267914 302.912018,258.622925 300.810364,259.531586 
	C300.810364,265.778778 300.810364,271.515076 300.170166,277.203735 
	C299.217621,276.423889 298.265045,275.644043 297.033264,274.235107 
	C295.001556,271.521515 292.969849,268.807892 291.367462,265.528320 
	C292.839233,264.070312 294.311005,262.612305 295.782806,261.154297 
	C293.842834,260.442780 291.911346,259.706512 289.956451,259.038757 
	C289.515961,258.888306 288.993805,258.976929 288.566559,258.287262 
	C288.655670,257.855682 288.744812,257.424103 289.275879,256.488190 
	C290.549225,254.667938 291.822571,252.847687 293.777649,251.133652 
	C296.845825,255.244049 299.982483,259.182007 306.659760,255.985916 
	C307.773376,255.344452 308.886993,254.702972 310.522705,253.555618 
	C313.458649,245.194153 310.356476,241.117874 301.071106,240.294357 
	C304.649414,235.279495 306.263031,229.860611 306.194702,223.536591 
	C305.922882,198.379532 306.079865,173.218048 306.019409,148.058350 
	C306.003784,141.563400 305.961365,135.055786 305.504181,128.584152 
	C305.398254,127.084938 303.827728,124.879601 302.446930,124.403458 
	C286.032074,118.743149 269.060852,116.488770 251.823471,118.362457 
	C242.047745,119.425079 232.437469,122.010132 222.065140,124.044357 
	C222.065140,135.918945 222.106064,146.736420 222.057526,157.553497 
	C221.905792,191.372009 221.720306,225.190369 220.923355,258.945068 
	C219.933548,259.638306 218.943741,260.331543 218.004730,261.003082 
	C218.004730,261.003082 218.036484,260.957916 217.555176,261.183228 
	C217.356461,261.467896 217.157745,261.752563 217.007614,262.007629 
M310.305206,262.369965 
	C309.906036,266.873901 309.379425,271.374207 309.249481,275.885895 
	C309.230682,276.538605 311.051880,277.547852 312.150574,277.778870 
	C312.586304,277.870514 313.767334,276.356934 313.917114,275.458801 
	C314.213104,273.683899 313.741821,271.766510 314.121399,270.024292 
	C314.491608,268.325043 315.527771,266.770874 316.271545,265.153015 
	C317.167999,266.778687 318.330658,268.317169 318.898468,270.050507 
	C319.746796,272.639984 320.176300,275.366699 321.007935,278.944031 
	C321.226990,314.952484 321.446075,350.960968 321.675354,388.644897 
	C329.968719,384.084076 337.141510,380.665039 343.667633,376.282990 
	C346.157898,374.610840 348.590454,370.751160 348.630005,367.855408 
	C349.033997,338.240997 348.939545,308.619843 349.274078,278.424194 
	C349.872406,277.356873 350.470703,276.289581 351.889587,275.287872 
	C353.252838,275.152405 354.616119,275.016968 356.812958,275.067688 
	C358.223358,274.954437 359.633789,274.841187 361.965942,274.870728 
	C375.748505,274.870728 389.531067,274.870728 403.100098,274.870728 
	C413.389679,221.605194 370.906403,147.724762 321.766235,132.854538 
	C321.558075,134.861725 321.195953,136.753738 321.191071,138.646667 
	C321.139740,158.457413 321.125061,178.268311 321.141510,198.079147 
	C321.158386,218.382812 321.221283,238.686432 321.036133,259.475708 
	C320.965118,259.639832 320.894135,259.803955 320.068115,259.834686 
	C316.663574,258.976959 313.094482,257.428619 311.001251,262.001099 
	C311.001251,262.001099 310.998230,261.983307 310.305206,262.369965 
z"/>
<path fill="#FDFDFD" opacity="1.000000" stroke="none" 
	d="
M300.755585,277.194092 
	C300.753723,277.525696 300.607330,277.983856 300.770874,278.170624 
	C306.945404,285.222717 306.160217,293.752899 306.131531,302.226257 
	C306.029510,332.352905 306.091675,362.480133 306.091675,393.776947 
	C296.748016,395.679810 287.447845,398.258331 277.976166,399.353821 
	C260.660156,401.356506 243.463043,400.194305 226.665787,394.946350 
	C223.654953,394.005676 222.653366,392.555054 222.633453,389.393890 
	C222.400665,352.439148 222.018082,315.485321 221.569290,278.031433 
	C221.463486,277.531616 221.353790,277.333801 221.505829,276.954376 
	C221.606613,275.764130 221.555359,274.953308 221.656708,274.172394 
	C221.809311,274.202301 222.059280,274.017212 222.412018,274.008057 
	C223.995239,273.606232 225.225693,273.213562 226.556503,272.788849 
	C226.944717,273.965485 227.213455,275.247467 227.796783,276.365265 
	C228.124466,276.993225 229.083160,277.831451 229.560608,277.721283 
	C230.376816,277.532990 231.377182,276.824860 231.712143,276.073090 
	C234.984497,268.728546 229.837860,259.648621 221.952759,258.873535 
	C221.805923,258.788666 221.547897,259.008789 221.547882,259.008789 
	C221.720306,225.190369 221.905792,191.372009 222.057526,157.553497 
	C222.106064,146.736420 222.065140,135.918945 222.065140,124.044357 
	C232.437469,122.010132 242.047745,119.425079 251.823471,118.362457 
	C269.060852,116.488770 286.032074,118.743149 302.446930,124.403458 
	C303.827728,124.879601 305.398254,127.084938 305.504181,128.584152 
	C305.961365,135.055786 306.003784,141.563400 306.019409,148.058350 
	C306.079865,173.218048 305.922882,198.379532 306.194702,223.536591 
	C306.263031,229.860611 304.649414,235.279495 300.742950,240.765076 
	C300.187164,241.777969 299.959564,242.320160 299.453308,243.023788 
	C298.057892,244.769928 296.941101,246.354630 295.523956,248.015533 
	C294.514374,249.070312 293.805145,250.048874 293.095947,251.027435 
	C291.822571,252.847687 290.549225,254.667938 288.712097,256.742065 
	C286.583435,256.313507 285.018585,255.631088 282.307617,254.448868 
	C281.569244,255.641464 280.326599,257.648560 279.075378,259.669525 
	C273.842987,256.691803 268.754242,258.630798 267.264709,264.866058 
	C266.849304,266.604797 267.424774,268.607605 266.895416,270.283905 
	C266.389801,271.885101 265.037415,273.218872 263.725830,274.746094 
	C262.263275,274.206818 261.132111,273.591614 260.001404,272.532654 
	C260.234192,266.835846 260.377075,261.616913 254.588425,258.823822 
	C250.878754,257.033875 248.984329,258.234650 248.810135,262.308533 
	C248.775360,263.121887 248.026810,263.904724 246.836044,266.167206 
	C245.540741,262.742401 244.727066,260.591034 243.772202,258.066345 
	C239.339172,257.824646 236.390076,260.286041 234.971344,264.573212 
	C232.644287,271.605072 233.575851,276.176758 238.062714,278.932251 
	C238.738892,275.466187 239.369751,272.232483 239.999878,269.393188 
	C240.061523,271.183380 240.123886,272.579193 240.186249,273.974976 
	C240.527466,273.923035 240.868683,273.871063 241.209915,273.819122 
	C240.806396,272.212769 240.402893,270.606445 240.000626,268.618286 
	C240.416138,267.295502 240.830399,266.354553 241.244675,265.413574 
	C242.142715,266.232361 243.570160,266.915802 243.821808,267.899872 
	C244.261887,269.620850 243.980637,271.526581 243.999649,273.354889 
	C244.060059,279.161835 244.790833,279.689362 250.572357,278.448975 
	C250.339630,308.825684 249.958954,338.779724 249.831543,368.734863 
	C249.825378,370.187958 251.961212,372.821350 253.240402,372.911713 
	C259.786591,373.374176 266.384644,373.358917 272.953094,373.149689 
	C276.619232,373.032928 278.133240,370.946228 278.114929,366.947540 
	C278.008911,343.813965 277.816315,320.668549 278.473907,297.550476 
	C278.701263,289.557068 276.816620,283.316406 270.998993,277.758423 
	C271.987885,274.544067 273.481445,271.761963 273.721436,268.875610 
	C274.037323,265.076447 276.342651,264.169189 279.355835,263.079529 
	C279.629395,264.039429 279.810120,264.640930 279.972107,265.247406 
	C280.956696,268.933105 281.638580,272.742462 283.075043,276.242310 
	C283.602234,277.526733 286.151245,279.070374 287.362946,278.777649 
	C290.794312,277.948700 294.011169,276.231537 297.312500,274.864197 
	C298.265045,275.644043 299.217621,276.423889 300.542664,277.149963 
	C300.915131,277.096161 300.755585,277.194092 300.755585,277.194092 
M278.973572,230.145844 
	C278.999451,222.360550 279.142609,214.573502 279.027588,206.790298 
	C278.762024,188.817810 278.244263,170.847931 278.138000,152.875168 
	C278.116669,149.263321 276.769043,147.346695 273.583282,147.206650 
	C267.151245,146.923859 260.689758,146.916992 254.258102,147.199448 
	C251.416077,147.324265 249.704880,148.951553 249.899368,152.448288 
	C250.175842,157.419174 249.695175,162.427246 249.688965,167.419617 
	C249.657364,192.868317 249.674377,218.317062 249.674377,244.160583 
	C255.030975,244.753296 259.782654,245.330063 264.547577,245.760925 
	C265.442444,245.841843 266.754181,245.649200 267.255493,245.058380 
	C271.188507,240.423126 274.970947,235.660110 278.973572,230.145844 
z"/>
<path fill="#FDFDFD" opacity="1.000000" stroke="none" 
	d="
M191.014420,264.994873 
	C191.338562,265.118042 191.583801,265.331787 191.956940,266.135712 
	C193.063354,267.856110 193.962967,269.076843 194.921417,270.629944 
	C197.279831,274.059692 199.579422,277.157043 201.878998,280.254395 
	C205.771133,285.643524 206.330261,291.699158 206.258926,298.189453 
	C205.964233,325.002655 206.012695,351.819641 205.937103,378.635223 
	C205.929611,381.292114 205.936081,383.949097 205.936081,386.736450 
	C172.626602,375.728912 128.760880,337.545868 122.224709,278.340851 
	C114.443687,207.859833 152.308701,156.236343 204.511856,131.249664 
	C204.996017,134.707932 205.805527,137.873169 205.825867,141.043488 
	C206.012970,170.189606 206.335785,199.341019 205.863831,228.478653 
	C205.791931,232.916733 202.050812,237.403107 199.653458,241.668549 
	C196.661270,246.992340 193.302917,252.110352 189.577026,257.655884 
	C184.625595,258.650818 180.109970,259.188782 181.573792,265.656464 
	C181.680008,266.125793 181.002625,266.763458 180.710297,267.333496 
	C178.669281,271.313049 180.445816,274.752808 182.659805,277.799500 
	C184.322037,280.086945 186.083694,278.661713 186.525803,276.618439 
	C187.041931,274.233154 187.010864,271.697021 186.965027,269.231018 
	C186.911484,266.351807 187.980057,264.799103 191.014420,264.994873 
M173.050110,279.415894 
	C179.368835,272.363281 178.139160,263.714661 177.806473,255.386826 
	C177.747498,253.910553 175.368011,252.526962 174.060074,251.100571 
	C173.374084,252.349869 172.439453,253.530655 172.071030,254.867462 
	C171.691223,256.245605 171.862747,257.775665 171.789078,259.322906 
	C166.421982,257.363342 162.992386,258.246307 160.709991,263.210205 
	C159.331177,266.208893 159.489899,269.914551 158.130463,273.568390 
	C155.076996,273.862671 150.316391,272.475555 151.452301,278.019806 
	C153.473068,287.882843 155.516647,297.840881 158.830368,307.311401 
	C162.165253,316.842346 168.215958,324.947327 177.075394,331.978790 
	C177.556992,319.775574 177.588333,308.498169 178.596924,297.308868 
	C179.213806,290.464996 177.725983,284.912598 173.050110,279.415894 
M167.257294,245.341415 
	C170.675476,241.075439 174.176056,236.871246 177.453720,232.499908 
	C178.270523,231.410583 178.750000,229.777649 178.735306,228.401489 
	C178.618256,217.436356 178.407761,206.470886 178.061188,195.510742 
	C177.998779,193.536957 177.178680,191.587143 176.490143,188.716232 
	C161.307587,205.221954 152.160645,223.095673 151.279327,244.974655 
	C156.667786,245.267075 161.629013,245.536316 167.257294,245.341415 
z"/>
<path fill="#FDFDFD" opacity="1.000000" stroke="none" 
	d="
M355.979370,274.881500 
	C354.616119,275.016968 353.252838,275.152405 351.434326,274.895508 
	C349.496368,272.114624 348.674164,269.952393 351.556396,267.736725 
	C352.423065,267.070465 353.048523,264.587524 352.521912,263.890015 
	C350.861450,261.690613 348.464264,258.255341 346.605591,258.406860 
	C343.625549,258.649780 339.972107,260.735779 338.155975,263.191223 
	C333.394348,269.629028 339.299561,281.076721 348.984375,279.000549 
	C348.939545,308.619843 349.033997,338.240997 348.630005,367.855408 
	C348.590454,370.751160 346.157898,374.610840 343.667633,376.282990 
	C337.141510,380.665039 329.968719,384.084076 321.675354,388.644897 
	C321.446075,350.960968 321.226990,314.952484 320.998596,278.156036 
	C321.087006,276.915497 321.184692,276.462921 321.683655,276.008850 
	C323.055786,274.850098 324.490723,273.830658 324.885315,272.502228 
	C325.433502,270.656799 325.201324,268.579559 325.303253,266.601562 
	C325.877197,266.621765 326.451172,266.641937 327.025116,266.662109 
	C327.025116,269.344177 326.497467,272.178925 327.213593,274.653778 
	C327.678497,276.260529 329.957275,277.342377 331.423370,278.659424 
	C332.281830,277.270111 333.611664,275.970154 333.895599,274.471985 
	C334.405975,271.779266 334.288635,268.967560 334.433594,266.205566 
	C332.843079,265.514679 332.161835,264.305145 331.447296,263.115662 
	C330.610046,261.721954 329.975433,259.439514 328.842072,259.149780 
	C326.458252,258.540405 323.806061,258.980652 321.264038,258.990082 
	C321.221283,238.686432 321.158386,218.382812 321.141510,198.079147 
	C321.125061,178.268311 321.139740,158.457413 321.191071,138.646667 
	C321.195953,136.753738 321.558075,134.861725 321.766235,132.854538 
	C370.906403,147.724762 413.389679,221.605194 403.100098,274.870728 
	C389.531067,274.870728 375.748505,274.870728 361.469391,274.477600 
	C360.413788,273.184937 359.854736,272.285400 358.954102,270.836243 
	C357.769196,272.447571 356.874298,273.664551 355.979370,274.881500 
M348.807129,229.673782 
	C348.807129,235.082718 348.807129,240.491638 348.807129,246.047516 
	C358.335327,246.047516 366.596466,246.047516 375.291626,246.047516 
	C374.169861,223.945816 366.510345,205.358475 351.123108,190.212143 
	C350.457092,190.315918 349.791077,190.419678 349.125061,190.523438 
	C349.004791,203.255875 348.884521,215.988327 348.807129,229.673782 
z"/>
<path fill="#F5F5F5" opacity="1.000000" stroke="none" 
	d="
M297.172882,274.549652 
	C294.011169,276.231537 290.794312,277.948700 287.362946,278.777649 
	C286.151245,279.070374 283.602234,277.526733 283.075043,276.242310 
	C281.638580,272.742462 280.956696,268.933105 279.972107,265.247406 
	C279.810120,264.640930 279.629395,264.039429 279.355835,263.079529 
	C276.342651,264.169189 274.037323,265.076447 273.721436,268.875610 
	C273.481445,271.761963 271.987885,274.544067 270.640381,277.635315 
	C268.171539,276.822083 266.114380,275.746124 264.057220,274.670166 
	C265.037415,273.218872 266.389801,271.885101 266.895416,270.283905 
	C267.424774,268.607605 266.849304,266.604797 267.264709,264.866058 
	C268.754242,258.630798 273.842987,256.691803 279.075378,259.669525 
	C280.326599,257.648560 281.569244,255.641464 282.307617,254.448868 
	C285.018585,255.631088 286.583435,256.313507 288.491119,256.994202 
	C288.744812,257.424103 288.655670,257.855682 288.372070,258.901245 
	C289.097809,261.708221 290.017975,263.901276 290.938141,266.094299 
	C292.969849,268.807892 295.001556,271.521515 297.172882,274.549652 
M268.748169,265.829102 
	C268.585846,265.882935 268.423553,265.936737 268.261230,265.990570 
	C268.424500,266.043243 268.587738,266.095917 268.748169,265.829102 
z"/>
<path fill="#F5F5F5" opacity="1.000000" stroke="none" 
	d="
M349.129242,278.712372 
	C339.299561,281.076721 333.394348,269.629028 338.155975,263.191223 
	C339.972107,260.735779 343.625549,258.649780 346.605591,258.406860 
	C348.464264,258.255341 350.861450,261.690613 352.521912,263.890015 
	C353.048523,264.587524 352.423065,267.070465 351.556396,267.736725 
	C348.674164,269.952393 349.496368,272.114624 351.024048,274.862701 
	C350.470703,276.289581 349.872406,277.356873 349.129242,278.712372 
z"/>
<path fill="#F5F5F5" opacity="1.000000" stroke="none" 
	d="
M321.150085,259.232910 
	C323.806061,258.980652 326.458252,258.540405 328.842072,259.149780 
	C329.975433,259.439514 330.610046,261.721954 331.447296,263.115662 
	C332.161835,264.305145 332.843079,265.514679 334.433594,266.205566 
	C334.288635,268.967560 334.405975,271.779266 333.895599,274.471985 
	C333.611664,275.970154 332.281830,277.270111 331.423370,278.659424 
	C329.957275,277.342377 327.678497,276.260529 327.213593,274.653778 
	C326.497467,272.178925 327.025116,269.344177 327.025116,266.662109 
	C326.451172,266.641937 325.877197,266.621765 325.303253,266.601562 
	C325.201324,268.579559 325.433502,270.656799 324.885315,272.502228 
	C324.490723,273.830658 323.055786,274.850098 321.597351,275.548218 
	C321.014221,270.048767 320.918671,265.008423 320.823120,259.968079 
	C320.894135,259.803955 320.965118,259.639832 321.150085,259.232910 
M330.732269,267.179688 
	C330.620972,267.025269 330.509705,266.870819 330.398438,266.716370 
	C330.420410,266.931000 330.442352,267.145599 330.732269,267.179688 
z"/>
<path fill="#F5F5F5" opacity="1.000000" stroke="none" 
	d="
M191.003006,264.600342 
	C187.980057,264.799103 186.911484,266.351807 186.965027,269.231018 
	C187.010864,271.697021 187.041931,274.233154 186.525803,276.618439 
	C186.083694,278.661713 184.322037,280.086945 182.659805,277.799500 
	C180.445816,274.752808 178.669281,271.313049 180.710297,267.333496 
	C181.002625,266.763458 181.680008,266.125793 181.573792,265.656464 
	C180.109970,259.188782 184.625595,258.650818 189.439163,257.993469 
	C190.215134,260.063538 190.603363,262.134674 191.003006,264.600342 
z"/>
<path fill="#0D0D0D" opacity="1.000000" stroke="none" 
	d="
M202.134171,279.934692 
	C199.579422,277.157043 197.279831,274.059692 194.966476,270.212891 
	C195.296234,267.303894 195.639771,265.144409 195.983307,262.984894 
	C195.983307,262.984894 195.999390,262.998779 196.222656,262.897339 
	C196.733795,262.595398 196.916138,262.323975 196.992966,261.981598 
	C196.992966,261.981598 197.001221,262.001221 197.222122,261.898712 
	C197.626831,261.524292 197.810638,261.252350 197.994446,260.980408 
	C197.994431,260.980408 197.998413,261.002197 198.365906,260.998077 
	C201.827499,261.324371 204.921600,261.654785 208.015701,261.985199 
	C208.015701,261.985199 208.000000,262.000000 207.989807,262.395660 
	C207.989380,263.869080 207.999146,264.946869 208.008911,266.024628 
	C208.008911,266.024628 207.997726,265.999084 207.705872,266.008606 
	C206.944931,266.352142 206.475861,266.686157 206.006775,267.020172 
	C206.006775,267.020172 205.998291,266.998779 205.741638,267.178223 
	C205.327225,267.966827 205.169449,268.576050 205.011658,269.185242 
	C204.921219,269.445404 204.766235,269.658661 203.965286,269.899658 
	C202.582565,269.986725 201.781250,269.999115 200.979950,270.011505 
	C200.979950,270.011505 201.000610,269.999786 201.009399,269.630188 
	C201.007904,268.501129 200.997620,267.741638 200.987320,266.982147 
	C200.987320,266.982147 200.998703,267.003113 201.313446,266.885315 
	C202.718628,265.972778 203.809067,265.178070 205.506210,263.941162 
	C200.429123,261.972015 198.388443,264.281738 197.311401,267.669128 
	C196.412872,270.495026 199.264038,273.775116 202.605820,273.987030 
	C205.069138,274.143250 207.551285,274.002319 210.025040,273.993774 
	C210.025040,273.993774 209.997925,274.004547 210.103683,274.222961 
	C210.487854,274.629944 210.766266,274.818481 211.044678,275.007019 
	C212.253494,278.375061 209.732422,278.571136 207.594467,278.965332 
	C205.877869,279.281860 204.125717,279.405640 202.134171,279.934692 
z"/>
<path fill="#232323" opacity="1.000000" stroke="none" 
	d="
M320.445618,259.901367 
	C320.918671,265.008423 321.014221,270.048767 321.196075,275.549744 
	C321.184692,276.462921 321.087006,276.915497 320.886627,277.701538 
	C320.176300,275.366699 319.746796,272.639984 318.898468,270.050507 
	C318.330658,268.317169 317.167999,266.778687 316.271545,265.153015 
	C315.527771,266.770874 314.491608,268.325043 314.121399,270.024292 
	C313.741821,271.766510 314.213104,273.683899 313.917114,275.458801 
	C313.767334,276.356934 312.586304,277.870514 312.150574,277.778870 
	C311.051880,277.547852 309.230682,276.538605 309.249481,275.885895 
	C309.379425,271.374207 309.906036,266.873901 310.667236,262.643677 
	C311.029297,267.216583 311.029297,271.515778 311.029297,275.814941 
	C312.006561,272.708740 311.661652,269.294617 312.920685,266.641663 
	C313.902313,264.573181 316.878387,263.451172 320.038696,261.118286 
	C316.648529,261.448120 313.815948,261.723724 310.983368,261.999329 
	C313.094482,257.428619 316.663574,258.976959 320.445618,259.901367 
z"/>
<path fill="#2F2F2F" opacity="1.000000" stroke="none" 
	d="
M293.436798,251.080536 
	C293.805145,250.048874 294.514374,249.070312 295.825897,248.181885 
	C296.868866,249.074387 297.309540,249.876724 298.326721,251.728745 
	C299.065918,244.016922 303.446808,244.810211 308.005157,246.003357 
	C308.000000,245.999908 307.993774,245.989044 307.970337,246.420471 
	C307.283966,249.891449 306.621063,252.931000 305.958160,255.970535 
	C299.982483,259.182007 296.845825,255.244049 293.436798,251.080536 
M303.620026,252.573273 
	C302.378265,252.835587 301.136505,253.097900 299.894714,253.360199 
	C300.014374,253.854263 300.134003,254.348312 300.253662,254.842377 
	C301.947601,254.428024 304.266876,254.529861 305.156738,253.451813 
	C306.018921,252.407288 305.652527,250.098618 305.304016,248.455811 
	C305.198303,247.957520 302.823334,247.264786 302.423462,247.645050 
	C301.584259,248.443146 301.365723,249.893936 301.414307,249.772522 
	C302.910156,251.081238 303.527924,251.621704 303.620026,252.573273 
z"/>
<path fill="#0D0D0D" opacity="1.000000" stroke="none" 
	d="
M300.862732,277.173767 
	C300.810364,271.515076 300.810364,265.778778 300.810364,259.531586 
	C302.912018,258.622925 304.997986,258.267914 305.001862,262.269226 
	C305.005371,265.905212 305.317657,269.582703 304.846741,273.156677 
	C304.658997,274.581573 302.734100,275.777557 301.177795,277.135925 
	C300.755585,277.194092 300.915131,277.096161 300.862732,277.173767 
z"/>
<path fill="#070707" opacity="1.000000" stroke="none" 
	d="
M221.504089,274.142487 
	C221.555359,274.953308 221.606613,275.764130 221.188492,276.764923 
	C219.798080,276.627411 218.877075,276.299927 217.956070,275.972443 
	C217.956070,275.972443 218.005966,275.992371 217.832428,275.774048 
	C217.090607,275.362640 216.522324,275.169556 215.954025,274.976471 
	C215.954025,274.976471 216.002869,274.998322 215.905975,274.796783 
	C215.611160,274.310181 215.345322,274.120148 215.011551,274.025177 
	C215.011551,274.025177 215.006042,273.627930 215.003372,272.953766 
	C215.001617,269.517303 215.002533,266.754974 215.003448,263.992676 
	C215.003448,263.992676 215.001419,264.000916 215.225647,263.889587 
	C215.645523,263.504791 215.841156,263.231354 216.036804,262.957916 
	C216.036804,262.957916 216.006836,263.006805 216.210663,262.894897 
	C216.622009,262.508331 216.829544,262.233673 217.037079,261.959015 
	C217.037079,261.959015 217.007614,262.007629 217.213043,261.896851 
	C217.624481,261.509979 217.830475,261.233948 218.036469,260.957916 
	C218.036484,260.957916 218.004730,261.003082 218.345718,260.987061 
	C219.660446,261.004211 220.634171,261.037384 221.671707,261.370972 
	C221.670746,262.073151 221.605972,262.474884 221.174377,262.923340 
	C219.324005,266.801147 216.311676,270.727600 221.504089,274.142487 
z"/>
<path fill="#2F2F2F" opacity="1.000000" stroke="none" 
	d="
M291.152802,265.811310 
	C290.017975,263.901276 289.097809,261.708221 288.343445,259.235352 
	C288.993805,258.976929 289.515961,258.888306 289.956451,259.038757 
	C291.911346,259.706512 293.842834,260.442780 295.782806,261.154297 
	C294.311005,262.612305 292.839233,264.070312 291.152802,265.811310 
z"/>
<path fill="#2F2F2F" opacity="1.000000" stroke="none" 
	d="
M299.731934,242.862335 
	C299.959564,242.320160 300.187164,241.777969 300.689087,241.115219 
	C310.356476,241.117874 313.458649,245.194153 310.005432,253.587158 
	C308.990051,251.075470 308.491913,248.532257 307.993774,245.989044 
	C307.993774,245.989044 308.000000,245.999908 307.846313,245.672546 
	C305.039062,244.517578 302.385498,243.689957 299.731934,242.862335 
z"/>
<path fill="#232323" opacity="1.000000" stroke="none" 
	d="
M209.761337,273.690369 
	C207.551285,274.002319 205.069138,274.143250 202.605820,273.987030 
	C199.264038,273.775116 196.412872,270.495026 197.311401,267.669128 
	C198.388443,264.281738 200.429123,261.972015 205.506210,263.941162 
	C203.809067,265.178070 202.718628,265.972778 201.301910,266.880615 
	C200.505386,266.719025 200.035126,266.444275 199.564865,266.169525 
	C197.929031,269.015076 199.486938,272.080444 203.103683,272.773804 
	C205.197250,273.175171 207.363876,273.195312 209.761337,273.690369 
z"/>
<path fill="#0D0D0D" opacity="1.000000" stroke="none" 
	d="
M307.970337,246.420471 
	C308.491913,248.532257 308.990051,251.075470 309.744385,253.840088 
	C308.886993,254.702972 307.773376,255.344452 306.308960,255.978226 
	C306.621063,252.931000 307.283966,249.891449 307.970337,246.420471 
z"/>
<path fill="#232323" opacity="1.000000" stroke="none" 
	d="
M207.861420,261.652435 
	C204.921600,261.654785 201.827499,261.324371 198.356964,260.990723 
	C201.342636,257.587555 204.569183,258.156403 207.861420,261.652435 
z"/>
<path fill="#DCDCDC" opacity="1.000000" stroke="none" 
	d="
M356.396179,274.974609 
	C356.874298,273.664551 357.769196,272.447571 358.954102,270.836243 
	C359.854736,272.285400 360.413788,273.184937 361.008514,274.406189 
	C359.633789,274.841187 358.223358,274.954437 356.396179,274.974609 
z"/>
<path fill="#434343" opacity="1.000000" stroke="none" 
	d="
M214.755127,264.246674 
	C215.002533,266.754974 215.001617,269.517303 215.016632,272.755585 
	C212.790390,270.445740 212.536911,267.540161 214.755127,264.246674 
z"/>
<path fill="#232323" opacity="1.000000" stroke="none" 
	d="
M195.684906,263.111206 
	C195.639771,265.144409 195.296234,267.303894 194.907623,269.880493 
	C193.962967,269.076843 193.063354,267.856110 192.136902,266.306458 
	C193.202225,265.064240 194.294373,264.150879 195.684906,263.111206 
z"/>
<path fill="#434343" opacity="1.000000" stroke="none" 
	d="
M221.607910,261.070587 
	C220.634171,261.037384 219.660446,261.004211 218.320312,260.997894 
	C218.943741,260.331543 219.933548,259.638306 221.235626,258.976929 
	C221.547897,259.008789 221.805923,258.788666 221.842712,259.221008 
	C221.788986,260.125732 221.698456,260.598175 221.607910,261.070587 
z"/>
<path fill="#232323" opacity="1.000000" stroke="none" 
	d="
M208.290405,265.886200 
	C207.999146,264.946869 207.989380,263.869080 207.998077,262.387634 
	C208.201645,263.238525 208.386765,264.493164 208.290405,265.886200 
z"/>
<path fill="#434343" opacity="1.000000" stroke="none" 
	d="
M218.118210,276.282623 
	C218.877075,276.299927 219.798080,276.627411 221.036438,277.144348 
	C221.353790,277.333801 221.463486,277.531616 221.414917,277.633789 
	C220.337677,277.354889 219.309006,276.973846 218.118210,276.282623 
z"/>
<path fill="#232323" opacity="1.000000" stroke="none" 
	d="
M200.732025,267.168335 
	C200.997620,267.741638 201.007904,268.501129 201.003326,269.640320 
	C200.817886,269.131500 200.647308,268.243011 200.732025,267.168335 
z"/>
<path fill="#232323" opacity="1.000000" stroke="none" 
	d="
M201.159637,270.282776 
	C201.781250,269.999115 202.582565,269.986725 203.789078,269.994293 
	C203.242630,270.194214 202.290970,270.374146 201.159637,270.282776 
z"/>
<path fill="#232323" opacity="1.000000" stroke="none" 
	d="
M206.310303,267.018433 
	C206.475861,266.686157 206.944931,266.352142 207.719009,266.013031 
	C207.553940,266.344177 207.083878,266.680420 206.310303,267.018433 
z"/>
<path fill="#232323" opacity="1.000000" stroke="none" 
	d="
M205.250244,268.976166 
	C205.169449,268.576050 205.327225,267.966827 205.752441,267.181946 
	C205.842880,267.593170 205.665848,268.180145 205.250244,268.976166 
z"/>
<path fill="#434343" opacity="1.000000" stroke="none" 
	d="
M216.143707,275.216644 
	C216.522324,275.169556 217.090607,275.362640 217.850647,275.793823 
	C217.472733,275.840179 216.903076,275.648499 216.143707,275.216644 
z"/>
<path fill="#434343" opacity="1.000000" stroke="none" 
	d="
M215.807983,263.069550 
	C215.841156,263.231354 215.645523,263.504791 215.222351,263.891357 
	C215.189606,263.730042 215.384384,263.455627 215.807983,263.069550 
z"/>
<path fill="#434343" opacity="1.000000" stroke="none" 
	d="
M216.793259,262.065063 
	C216.829544,262.233673 216.622009,262.508331 216.186493,262.910309 
	C216.155472,262.748810 216.352463,262.459961 216.793259,262.065063 
z"/>
<path fill="#232323" opacity="1.000000" stroke="none" 
	d="
M196.758255,262.073181 
	C196.916138,262.323975 196.733795,262.595398 196.215500,262.892761 
	C196.164581,262.714661 196.344070,262.439728 196.758255,262.073181 
z"/>
<path fill="#232323" opacity="1.000000" stroke="none" 
	d="
M210.930923,274.779877 
	C210.766266,274.818481 210.487854,274.629944 210.103806,274.208405 
	C210.271164,274.167847 210.544174,274.360291 210.930923,274.779877 
z"/>
<path fill="#434343" opacity="1.000000" stroke="none" 
	d="
M215.142197,274.231445 
	C215.345322,274.120148 215.611160,274.310181 215.921478,274.818604 
	C215.732620,274.900452 215.478943,274.699036 215.142197,274.231445 
z"/>
<path fill="#434343" opacity="1.000000" stroke="none" 
	d="
M217.795822,261.070557 
	C217.830475,261.233948 217.624481,261.509979 217.188751,261.911621 
	C217.157745,261.752563 217.356461,261.467896 217.795822,261.070557 
z"/>
<path fill="#232323" opacity="1.000000" stroke="none" 
	d="
M197.759796,261.073730 
	C197.810638,261.252350 197.626831,261.524292 197.212387,261.894714 
	C197.162888,261.717834 197.344009,261.442444 197.759796,261.073730 
z"/>
<path fill="#040404" opacity="1.000000" stroke="none" 
	d="
M278.886688,230.541168 
	C274.970947,235.660110 271.188507,240.423126 267.255493,245.058380 
	C266.754181,245.649200 265.442444,245.841843 264.547577,245.760925 
	C259.782654,245.330063 255.030975,244.753296 249.674377,244.160583 
	C249.674377,218.317062 249.657364,192.868317 249.688965,167.419617 
	C249.695175,162.427246 250.175842,157.419174 249.899368,152.448288 
	C249.704880,148.951553 251.416077,147.324265 254.258102,147.199448 
	C260.689758,146.916992 267.151245,146.923859 273.583282,147.206650 
	C276.769043,147.346695 278.116669,149.263321 278.138000,152.875168 
	C278.244263,170.847931 278.762024,188.817810 279.027588,206.790298 
	C279.142609,214.573502 278.999451,222.360550 278.886688,230.541168 
z"/>
<path fill="#030303" opacity="1.000000" stroke="none" 
	d="
M263.725830,274.746094 
	C266.114380,275.746124 268.171539,276.822083 270.587280,278.021179 
	C276.816620,283.316406 278.701263,289.557068 278.473907,297.550476 
	C277.816315,320.668549 278.008911,343.813965 278.114929,366.947540 
	C278.133240,370.946228 276.619232,373.032928 272.953094,373.149689 
	C266.384644,373.358917 259.786591,373.374176 253.240402,372.911713 
	C251.961212,372.821350 249.825378,370.187958 249.831543,368.734863 
	C249.958954,338.779724 250.339630,308.825684 250.719604,278.067139 
	C252.042450,271.948700 256.893280,274.339691 260.000977,272.976410 
	C261.132111,273.591614 262.263275,274.206818 263.725830,274.746094 
z"/>
<path fill="#F5F5F5" opacity="1.000000" stroke="none" 
	d="
M260.001404,272.532654 
	C256.893280,274.339691 252.042450,271.948700 250.621933,277.644714 
	C244.790833,279.689362 244.060059,279.161835 243.999649,273.354889 
	C243.980637,271.526581 244.261887,269.620850 243.821808,267.899872 
	C243.570160,266.915802 242.142715,266.232361 241.244675,265.413574 
	C240.830399,266.354553 240.416138,267.295502 240.000931,268.618225 
	C240.000000,269.000000 240.000610,268.998779 240.000610,268.998779 
	C239.369751,272.232483 238.738892,275.466187 238.062714,278.932251 
	C233.575851,276.176758 232.644287,271.605072 234.971344,264.573212 
	C236.390076,260.286041 239.339172,257.824646 243.772202,258.066345 
	C244.727066,260.591034 245.540741,262.742401 246.836044,266.167206 
	C248.026810,263.904724 248.775360,263.121887 248.810135,262.308533 
	C248.984329,258.234650 250.878754,257.033875 254.588425,258.823822 
	C260.377075,261.616913 260.234192,266.835846 260.001404,272.532654 
z"/>
<path fill="#F8F8F8" opacity="1.000000" stroke="none" 
	d="
M221.671707,261.370972 
	C221.698456,260.598175 221.788986,260.125732 221.989548,259.305847 
	C229.837860,259.648621 234.984497,268.728546 231.712143,276.073090 
	C231.377182,276.824860 230.376816,277.532990 229.560608,277.721283 
	C229.083160,277.831451 228.124466,276.993225 227.796783,276.365265 
	C227.213455,275.247467 226.944717,273.965485 226.556503,272.788849 
	C225.225693,273.213562 223.995239,273.606232 222.317566,273.553558 
	C221.760651,269.697693 221.650925,266.287170 221.541214,262.876648 
	C221.605972,262.474884 221.670746,262.073151 221.671707,261.370972 
z"/>
<path fill="#0D0D0D" opacity="1.000000" stroke="none" 
	d="
M299.453308,243.023788 
	C302.385498,243.689957 305.039062,244.517578 307.851471,245.675995 
	C303.446808,244.810211 299.065918,244.016922 298.326721,251.728745 
	C297.309540,249.876724 296.868866,249.074387 296.126251,248.105682 
	C296.941101,246.354630 298.057892,244.769928 299.453308,243.023788 
z"/>
<path fill="#434343" opacity="1.000000" stroke="none" 
	d="
M221.174377,262.923340 
	C221.650925,266.287170 221.760651,269.697693 221.964813,273.562714 
	C222.059280,274.017212 221.809311,274.202301 221.656708,274.172394 
	C216.311676,270.727600 219.324005,266.801147 221.174377,262.923340 
z"/>
<path fill="#F5F5F5" opacity="1.000000" stroke="none" 
	d="
M239.999695,269.000061 
	C240.402893,270.606445 240.806396,272.212769 241.209915,273.819122 
	C240.868683,273.871063 240.527466,273.923035 240.186249,273.974976 
	C240.123886,272.579193 240.061523,271.183380 239.999878,269.393188 
	C240.000610,268.998779 240.000000,269.000000 239.999695,269.000061 
z"/>
<path fill="#060606" opacity="1.000000" stroke="none" 
	d="
M172.942902,280.140045 
	C177.725983,284.912598 179.213806,290.464996 178.596924,297.308868 
	C177.588333,308.498169 177.556992,319.775574 177.075394,331.978790 
	C168.215958,324.947327 162.165253,316.842346 158.830368,307.311401 
	C155.516647,297.840881 153.473068,287.882843 151.452301,278.019806 
	C150.316391,272.475555 155.076996,273.862671 158.953873,273.608704 
	C165.721710,272.656921 169.325394,276.412506 172.942902,280.140045 
z"/>
<path fill="#070707" opacity="1.000000" stroke="none" 
	d="
M166.923767,245.573486 
	C161.629013,245.536316 156.667786,245.267075 151.279327,244.974655 
	C152.160645,223.095673 161.307587,205.221954 176.490143,188.716232 
	C177.178680,191.587143 177.998779,193.536957 178.061188,195.510742 
	C178.407761,206.470886 178.618256,217.436356 178.735306,228.401489 
	C178.750000,229.777649 178.270523,231.410583 177.453720,232.499908 
	C174.176056,236.871246 170.675476,241.075439 166.923767,245.573486 
z"/>
<path fill="#F3F3F3" opacity="1.000000" stroke="none" 
	d="
M172.996506,279.777954 
	C169.325394,276.412506 165.721710,272.656921 159.367523,273.475769 
	C159.489899,269.914551 159.331177,266.208893 160.709991,263.210205 
	C162.992386,258.246307 166.421982,257.363342 171.789078,259.322906 
	C171.862747,257.775665 171.691223,256.245605 172.071030,254.867462 
	C172.439453,253.530655 173.374084,252.349869 174.060074,251.100571 
	C175.368011,252.526962 177.747498,253.910553 177.806473,255.386826 
	C178.139160,263.714661 179.368835,272.363281 172.996506,279.777954 
z"/>
<path fill="#050505" opacity="1.000000" stroke="none" 
	d="
M348.785706,229.197266 
	C348.884521,215.988327 349.004791,203.255875 349.125061,190.523438 
	C349.791077,190.419678 350.457092,190.315918 351.123108,190.212143 
	C366.510345,205.358475 374.169861,223.945816 375.291626,246.047516 
	C366.596466,246.047516 358.335327,246.047516 348.807129,246.047516 
	C348.807129,240.491638 348.807129,235.082718 348.785706,229.197266 
z"/>
<path fill="#FDFDFD" opacity="1.000000" stroke="none" 
	d="
M268.749573,265.988831 
	C268.587738,266.095917 268.424500,266.043243 268.261230,265.990570 
	C268.423553,265.936737 268.585846,265.882935 268.749573,265.988831 
z"/>
<path fill="#FDFDFD" opacity="1.000000" stroke="none" 
	d="
M330.598297,267.269958 
	C330.442352,267.145599 330.420410,266.931000 330.398438,266.716370 
	C330.509705,266.870819 330.620972,267.025269 330.598297,267.269958 
z"/>
<path fill="#070707" opacity="1.000000" stroke="none" 
	d="
M310.992310,262.000214 
	C313.815948,261.723724 316.648529,261.448120 320.038696,261.118286 
	C316.878387,263.451172 313.902313,264.573181 312.920685,266.641663 
	C311.661652,269.294617 312.006561,272.708740 311.029297,275.814941 
	C311.029297,271.515778 311.029297,267.216583 311.013763,262.450378 
	C310.998230,261.983307 311.001251,262.001099 310.992310,262.000214 
z"/>
<path fill="#0D0D0D" opacity="1.000000" stroke="none" 
	d="
M303.882874,252.367737 
	C303.527924,251.621704 302.910156,251.081238 301.414307,249.772522 
	C301.365723,249.893936 301.584259,248.443146 302.423462,247.645050 
	C302.823334,247.264786 305.198303,247.957520 305.304016,248.455811 
	C305.652527,250.098618 306.018921,252.407288 305.156738,253.451813 
	C304.266876,254.529861 301.947601,254.428024 300.253662,254.842377 
	C300.134003,254.348312 300.014374,253.854263 299.894714,253.360199 
	C301.136505,253.097900 302.378265,252.835587 303.882874,252.367737 
z"/>
</svg>